<svg width="40" height="40" viewBox="0 0 40 40" fill="none" xmlns="http://www.w3.org/2000/svg">
<path d="M38.8548 1.1566C37.8548 0.134597 36.3748 -0.243403 34.9948 0.156597L2.81484 9.4546C1.35884 9.8586 0.32684 11.0126 0.0488403 12.4766C-0.23516 13.9686 0.75684 15.8646 2.05284 16.6566L12.1148 22.8006C13.1468 23.4326 14.4788 23.2746 15.3328 22.4186L26.8548 10.8966C27.4348 10.2946 28.3948 10.2946 28.9748 10.8966C29.5548 11.4746 29.5548 12.4166 28.9748 13.0166L17.4328 24.5386C16.5768 25.3946 16.4168 26.7226 17.0468 27.7566L23.1948 37.8566C23.9148 39.0546 25.1548 39.7366 26.5148 39.7366C26.6748 39.7366 26.8548 39.7366 27.0148 39.7146C28.5748 39.5166 29.8148 38.4546 30.2748 36.9546L39.8148 5.0166C40.2348 3.6566 39.8548 2.1766 38.8548 1.1566Z" fill="#DFDFDF"/>
<path opacity="0.4" d="M14.9028 34.2843C15.4868 34.8703 15.4868 35.8203 14.9028 36.4063L12.1708 39.1363C11.8788 39.4303 11.4948 39.5763 11.1108 39.5763C10.7268 39.5763 10.3428 39.4303 10.0508 39.1363C9.46485 38.5503 9.46485 37.6023 10.0508 37.0163L12.7808 34.2843C13.3668 33.7003 14.3168 33.7003 14.9028 34.2843ZM13.3354 26.7083C13.9194 27.2943 13.9194 28.2443 13.3354 28.8303L10.6034 31.5603C10.3114 31.8543 9.92745 32.0003 9.54345 32.0003C9.15945 32.0003 8.77545 31.8543 8.48345 31.5603C7.89745 30.9743 7.89745 30.0263 8.48345 29.4403L11.2134 26.7083C11.7994 26.1243 12.7494 26.1243 13.3354 26.7083ZM5.81305 24.3235C6.39705 24.9095 6.39705 25.8595 5.81305 26.4455L3.08105 29.1755C2.78905 29.4695 2.40505 29.6155 2.02105 29.6155C1.63705 29.6155 1.25305 29.4695 0.961045 29.1755C0.375045 28.5895 0.375045 27.6415 0.961045 27.0555L3.69105 24.3235C4.27705 23.7395 5.22705 23.7395 5.81305 24.3235Z" fill="black"/>
</svg>
